<?xml version="1.0" encoding="UTF-8" standalone="no"?>
<!-- Created with Inkscape (http://www.inkscape.org/) -->

<svg
   xmlns:dc="http://purl.org/dc/elements/1.1/"
   xmlns:cc="http://creativecommons.org/ns#"
   xmlns:rdf="http://www.w3.org/1999/02/22-rdf-syntax-ns#"
   xmlns:svg="http://www.w3.org/2000/svg"
   xmlns="http://www.w3.org/2000/svg"
   xmlns:sodipodi="http://sodipodi.sourceforge.net/DTD/sodipodi-0.dtd"
   xmlns:inkscape="http://www.inkscape.org/namespaces/inkscape"
   width="198.85178mm"
   height="45.250664mm"
   viewBox="0 0 704.5929 160.337"
   id="svg2"
   version="1.1"
   inkscape:version="0.91 r13725"
   sodipodi:docname="imperitus-logo.svg">
  <defs
     id="defs4" />
  <sodipodi:namedview
     id="base"
     pagecolor="#ffffff"
     bordercolor="#666666"
     borderopacity="1.0"
     inkscape:pageopacity="0.0"
     inkscape:pageshadow="2"
     inkscape:zoom="1.2350582"
     inkscape:cx="377.9876"
     inkscape:cy="25.322724"
     inkscape:document-units="px"
     inkscape:current-layer="layer1"
     showgrid="false"
     inkscape:window-width="1920"
     inkscape:window-height="1056"
     inkscape:window-x="0"
     inkscape:window-y="24"
     inkscape:window-maximized="1"
     fit-margin-top="0"
     fit-margin-left="0"
     fit-margin-right="0"
     fit-margin-bottom="0" />
  <metadata
     id="metadata7">
    <rdf:RDF>
      <cc:Work
         rdf:about="">
        <dc:format>image/svg+xml</dc:format>
        <dc:type
           rdf:resource="http://purl.org/dc/dcmitype/StillImage" />
        <dc:title></dc:title>
      </cc:Work>
    </rdf:RDF>
  </metadata>
  <g
     inkscape:label="Layer 1"
     inkscape:groupmode="layer"
     id="layer1"
     transform="translate(-148.1935,-512.91356)">
    <g
       style="font-style:normal;font-variant:normal;font-weight:normal;font-stretch:normal;font-size:180px;line-height:125%;font-family:'Latin Modern Math';-inkscape-font-specification:'Latin Modern Math';letter-spacing:0px;word-spacing:0px;fill:#28170b;fill-opacity:1;stroke:none;stroke-width:1px;stroke-linecap:butt;stroke-linejoin:miter;stroke-opacity:1"
       id="text3336">
      <path
         d="m 204.80143,622.42655 -1.44421,-5.38987 c -11.4752,3.07477 -12.4036,2.39179 -14.22051,-4.38901 l -17.09759,-63.80906 -23.82886,8.43477 1.44421,5.38987 c 11.30133,-3.02818 13.14565,-2.40427 15.42844,6.1152 l 12.53201,46.77012 c 2.09644,7.824 0.18391,8.33646 -11.46516,11.45782 l 1.44421,5.38987 18.98557,-5.64622 c 6.08533,-1.63056 12.26384,-2.91338 18.22189,-4.32349 z M 167.09996,519.9734 c -1.25786,-4.6944 -6.46807,-8.14342 -11.68407,-6.7458 -5.91146,1.58398 -8.08435,7.38399 -6.91966,11.73066 1.25786,4.6944 6.46807,8.14342 11.68407,6.7458 5.91146,-1.58398 8.08435,-7.38399 6.91966,-11.73066 z"
         id="path3341"
         inkscape:connector-curvature="0"
         style="fill:#28170b" />
      <path
         d="m 337.9556,639.42621 0,-5.58 c -9.36,0 -13.86,0 -14.04,-5.4 l 0,-34.38 c 0,-15.48 0,-21.06 -5.58,-27.54 -2.52,-3.06 -8.46,-6.66 -18.9,-6.66 -15.12,0 -23.04,10.8 -26.1,17.64 -2.52,-15.66 -15.84,-17.64 -23.94,-17.64 -13.14,0 -21.6,7.74 -26.64,18.9 l 0,-18.9 -25.38,1.98 0,5.58 c 12.6,0 14.04,1.26 14.04,10.08 l 0,48.24 c 0,8.1 -1.98,8.1 -14.04,8.1 l 0,5.58 20.34,-0.54 20.16,0.54 0,-5.58 c -12.06,0 -14.04,0 -14.04,-8.1 l 0,-33.12 c 0,-18.72 12.78,-28.8 24.3,-28.8 11.34,0 13.32,9.72 13.32,19.98 l 0,41.94 c 0,8.1 -1.98,8.1 -14.04,8.1 l 0,5.58 20.34,-0.54 20.16,0.54 0,-5.58 c -12.06,0 -14.04,0 -14.04,-8.1 l 0,-33.12 c 0,-18.72 12.78,-28.8 24.3,-28.8 11.34,0 13.32,9.72 13.32,19.98 l 0,41.94 c 0,8.1 -1.98,8.1 -14.04,8.1 l 0,5.58 20.34,-0.54 20.16,0.54 z"
         style="fill:#28170b"
         id="path3343"
         inkscape:connector-curvature="0" />
      <path
         d="m 437.38569,606.88248 c 3.1815,-22.63753 -11.62852,-42.71407 -31.59232,-45.5198 -13.90337,-1.95399 -22.49204,4.83679 -26.60813,8.25723 l 1.65337,-11.76439 -25.94331,-1.64663 -0.77659,5.52569 c 12.65563,1.77863 13.75306,3.02348 12.65081,10.8664 l -11.72394,83.42019 c -1.1273,8.02117 -3.08803,7.74561 -15.03067,6.06718 l -0.77658,5.52569 20.03895,2.27099 20.0669,3.36552 0.77659,-5.52569 c -11.94263,-1.67843 -13.90336,-1.95399 -12.77606,-9.97516 l 4.20859,-29.94571 0.22546,-1.60423 c 0.49043,2.97722 6.62409,13.65478 20.17096,15.55867 21.21154,2.98108 42.20437,-11.88192 45.43597,-34.87595 z m -14.7946,-2.07924 c -3.0312,21.56803 -17.61287,34.78731 -30.80324,32.93352 -7.12993,-1.00205 -13.40234,-5.51896 -17.18795,-13.50351 -1.9694,-4.09393 -1.94435,-4.27218 -1.44332,-7.83715 l 5.5864,-39.74936 c 6.44681,-8.36418 15.90746,-12.30587 24.99812,-11.02826 13.01212,1.82874 21.68077,19.0427 18.84999,39.18476 z"
         id="path3345"
         inkscape:connector-curvature="0"
         style="fill:#28170b" />
      <path
         d="m 446.82834,595.49918 c 0.61562,1.69148 2.09196,1.53723 2.93765,1.22945 1.52229,-0.55414 1.49122,-1.69205 1.33689,-3.16838 -0.42096,-19.57664 14.80206,-25.11735 16.49351,-25.73297 8.45723,-3.07821 17.06991,-0.46641 23.23809,4.37597 8.0294,6.27205 12.09262,17.43559 14.30888,23.52481 l -47.1913,17.17625 c -3.72118,1.35442 -4.22863,1.53912 -2.93589,5.09111 6.09478,16.74529 21.2003,29.82793 42.34336,22.13244 19.6208,-7.14137 28.84103,-30.22712 21.14558,-51.37021 -8.24951,-22.66538 -31.98138,-32.60823 -51.43302,-25.52843 -20.63565,7.51078 -21.41359,29.05621 -20.24388,32.26997 z m 19.35152,18.43308 40.08729,-14.5906 c 8.15813,25.57189 -4.51095,34.9719 -10.26187,37.06505 -17.42192,6.34108 -27.42443,-15.87785 -29.82542,-22.47445 z"
         id="path3347"
         inkscape:connector-curvature="0"
         style="fill:#28170b" />
      <path
         d="m 587.25279,570.84621 c 0,-5.76 -5.58,-10.98 -13.32,-10.98 -13.14,0 -19.62,12.06 -22.14,19.8 l 0,-19.8 -25.02,1.98 0,5.58 c 12.6,0 14.04,1.26 14.04,10.08 l 0,48.24 c 0,8.1 -1.98,8.1 -14.04,8.1 l 0,5.58 20.52,-0.54 c 7.2,0 15.66,0 22.86,0.54 l 0,-5.58 -3.78,0 c -13.32,0 -13.68,-1.98 -13.68,-8.46 l 0,-27.72 c 0,-17.82 7.56,-33.84 21.24,-33.84 1.26,0 1.62,0 1.98,0.18 -0.54,0.18 -4.14,2.34 -4.14,7.02 0,5.04 3.78,7.74 7.74,7.74 3.24,0 7.74,-2.16 7.74,-7.92 z"
         style="fill:#28170b"
         id="path3349"
         inkscape:connector-curvature="0" />
      <path
         d="m 620.89661,642.39626 1.44421,-5.38987 c -11.4752,-3.07477 -11.93773,-4.13045 -10.12082,-10.91125 l 17.09759,-63.80906 -24.85379,-4.60971 -1.44422,5.38987 c 11.30134,3.02818 12.58661,4.49067 10.30383,13.01013 l -12.53202,46.77013 c -2.09643,7.824 -4.00897,7.31154 -15.65803,4.19018 l -1.44421,5.38987 19.26509,4.60302 c 6.08533,1.63056 12.07749,3.60885 17.94237,5.36669 z m 18.57614,-107.57777 c 1.25786,-4.6944 -1.5298,-10.28644 -6.7458,-11.68406 -5.91146,-1.58397 -10.69325,2.35254 -11.85793,6.69921 -1.25786,4.6944 1.5298,10.28644 6.7458,11.68407 5.91146,1.58397 10.69324,-2.35255 11.85793,-6.69922 z"
         id="path3351"
         inkscape:connector-curvature="0"
         style="fill:#28170b" />
      <path
         d="m 698.84002,640.58688 0,-10.26 -4.5,0 0,9.9 c 0,13.32 -5.4,20.16 -12.06,20.16 -12.06,0 -12.06,-16.38 -12.06,-19.44 l 0,-50.04 25.74,0 0,-5.58 -25.74,0 0,-33.12 -4.5,0 c -0.18,14.76 -5.58,34.02 -23.22,34.74 l 0,3.96 15.3,0 0,49.68 c 0,22.14 16.74,24.3 23.22,24.3 12.78,0 17.82,-12.78 17.82,-24.3 z"
         id="path3353"
         inkscape:connector-curvature="0"
         style="fill:#28170b" />
      <path
         d="m 797.78817,635.33306 -0.48633,-5.55876 c -12.55206,1.09816 -14.09639,-0.0315 -14.86511,-8.81798 l -5.56925,-63.65684 -26.18674,4.2786 0.48633,5.55877 c 12.55205,-1.09816 14.09639,0.0315 14.8651,8.81798 l 2.79247,31.91808 c 1.36486,15.6004 -6.17548,28.54685 -19.26547,29.69208 -15.06247,1.31779 -16.51707,-7.04726 -17.33284,-16.37164 l -5.20843,-59.5326 -26.18674,4.27861 0.48632,5.55876 c 13.98658,-1.22366 14.03364,-0.68572 15.42988,15.27332 l 2.3532,26.89726 c 1.22367,13.98657 2.65128,30.30424 29.90717,27.91966 10.04164,-0.87853 17.49224,-6.58962 21.71971,-18.16211 l 1.41193,16.13835 25.6488,-4.23154 z"
         id="path3355"
         inkscape:connector-curvature="0"
         style="fill:#28170b" />
      <path
         d="m 852.67305,593.51727 c -0.83147,-9.5037 -6.68156,-14.41251 -9.0216,-16.37603 -6.41941,-5.22038 -13.5382,-6.04307 -21.19494,-6.81869 -10.21421,-1.09394 -22.43226,-2.37393 -23.34217,-12.77421 -0.54908,-6.27602 3.4699,-14.03583 18.891,-15.385 19.72465,-1.72568 22.03315,14.33423 22.87811,19.86162 0.32051,1.59815 2.29297,1.42558 2.29297,1.42558 2.3311,-0.20394 2.25266,-1.10052 1.95458,-4.5075 l -1.58449,-18.11082 c -0.26669,-3.04836 -0.37651,-4.30357 -2.34897,-4.131 -0.89658,0.0784 -1.25521,0.10982 -3.39805,2.46554 -0.47519,0.76433 -2.12715,2.53504 -2.79735,3.13574 -7.25323,-4.42467 -14.60515,-3.78147 -17.29488,-3.54614 -21.87643,1.91394 -27.6393,14.52419 -26.76078,24.56583 0.54909,6.27603 3.85739,11.04584 9.04403,14.56719 6.14598,4.16018 11.26092,4.7968 24.39124,6.17768 4.00768,0.37212 18.96253,1.95474 20.09206,14.86542 0.80009,9.14507 -4.84841,16.86676 -18.83498,18.09042 -15.06247,1.3178 -22.41203,-8.33839 -27.1525,-23.2821 -0.74189,-2.28403 -0.98395,-2.9856 -2.7771,-2.82872 -2.3311,0.20394 -2.22128,1.45915 -1.9389,4.68682 l 2.07082,23.66959 c 0.2667,3.04835 0.37651,4.30356 2.34898,4.13099 0.89658,-0.0784 1.0602,-0.27345 4.16912,-3.9785 0.32725,-0.39001 0.29587,-0.74864 3.22547,-4.43801 8.54876,6.84096 16.63363,6.31431 20.39924,5.98486 20.62123,-1.80412 27.81863,-14.53988 26.68909,-27.45056 z"
         id="path3357"
         inkscape:connector-curvature="0"
         style="fill:#28170b" />
    </g>
  </g>
</svg>
